<svg xmlns="http://www.w3.org/2000/svg" xmlns:xlink="http://www.w3.org/1999/xlink" width="1920" zoomAndPan="magnify" viewBox="0 0 1440 809.999993" height="1080" preserveAspectRatio="xMidYMid meet" version="1.0"><rect x="-144" width="1728" fill="#ffffff" y="-80.999999" height="971.999992" fill-opacity="1"/><path fill="#000000" d="M 711.335938 304.160156 C 708.839844 304.382812 701.582031 305.398438 699.96875 305.757812 C 695.234375 306.796875 691.660156 307.722656 688.621094 308.695312 C 665.433594 316.101562 645.707031 331.285156 632.496094 351.902344 C 625.988281 362.0625 620.730469 375.359375 618.390625 387.582031 C 615.996094 400.085938 616.125 415.308594 618.722656 427.753906 C 622 443.441406 629.105469 458.59375 639.03125 471.050781 C 644.105469 477.425781 653.71875 486.4375 660.625 491.292969 C 673.183594 500.128906 688.566406 506.269531 704.300781 508.734375 C 722.054688 511.515625 741.226562 509.316406 758.21875 502.546875 C 786.386719 491.328125 808.445312 467.925781 818.015625 439.109375 C 823.046875 423.953125 824.429688 405.875 821.765625 389.988281 C 815.101562 350.195312 785.792969 317.949219 746.710938 307.414062 C 737.875 305.035156 731.96875 304.257812 721.625 304.125 C 716.859375 304.066406 712.230469 304.078125 711.335938 304.160156 M 708.285156 311.382812 C 665.421875 316.871094 631.777344 349.023438 624.675781 391.285156 C 624.0625 394.925781 623.269531 403.699219 623.269531 406.832031 C 623.269531 414.609375 624.710938 424.535156 627.074219 433.007812 C 633.542969 456.191406 649.175781 476.617188 670.132812 489.253906 C 681.183594 495.917969 693.285156 500.191406 706.644531 502.140625 C 713.507812 503.144531 725.195312 503.214844 732.082031 502.300781 C 764.222656 498.023438 791.457031 478.773438 806.066406 449.996094 C 810.644531 440.976562 813.667969 431.46875 815.328125 420.882812 C 816.402344 414.015625 816.5 400.234375 815.519531 393.992188 C 812.777344 376.535156 806.960938 362.453125 796.96875 349.082031 C 793.355469 344.246094 784.097656 334.800781 779.554688 331.316406 C 764.691406 319.917969 749.296875 313.605469 730.839844 311.347656 C 725.261719 310.664062 713.757812 310.683594 708.285156 311.382812 M 777.007812 338.457031 C 770.898438 342.460938 751.253906 355.417969 748.296875 357.394531 L 745.738281 359.109375 L 742.882812 357.472656 C 730.015625 350.097656 720.738281 344.992188 719.265625 344.46875 C 717.722656 343.921875 717.339844 343.90625 716.136719 344.335938 C 715.382812 344.609375 709.453125 348.386719 702.957031 352.734375 L 691.148438 360.640625 L 687.796875 358.6875 C 683.703125 356.300781 657.34375 340.722656 656.183594 340.007812 C 655.382812 339.511719 655.230469 339.613281 652.378906 342.558594 C 647.539062 347.558594 641.179688 356.394531 637.546875 363.160156 L 635.914062 366.199219 L 635.90625 383.433594 L 635.902344 400.667969 L 631.402344 400.667969 C 627.113281 400.667969 626.882812 400.707031 626.46875 401.476562 C 625.394531 403.484375 625.8125 413.347656 627.003906 414.109375 C 627.234375 414.253906 629.324219 414.375 631.652344 414.378906 L 635.882812 414.382812 L 635.980469 431.4375 L 636.082031 448.492188 L 638.554688 452.824219 C 642.917969 460.460938 648.890625 468.84375 652.292969 472.113281 L 653.585938 473.359375 L 653.585938 360.902344 L 658.371094 363.417969 C 675.6875 372.523438 688.402344 379.226562 692.027344 381.167969 C 693.417969 381.910156 696.421875 383.5 698.703125 384.699219 C 700.988281 385.898438 705.675781 388.363281 709.125 390.175781 C 716.039062 393.816406 717.980469 394.4375 720.632812 393.859375 C 722.476562 393.457031 742.5 383.015625 742.457031 382.480469 C 742.445312 382.304688 740.753906 381.277344 738.707031 380.199219 C 732.679688 377.027344 727.496094 374.277344 726.082031 373.503906 L 724.765625 372.785156 L 721.640625 374.820312 L 718.519531 376.855469 L 715.921875 375.292969 C 714.492188 374.429688 712.390625 373.203125 711.253906 372.558594 C 710.117188 371.914062 709.109375 371.265625 709.019531 371.113281 C 708.875 370.882812 713.445312 367.402344 716.820312 365.171875 L 717.828125 364.507812 L 720.390625 365.984375 C 721.796875 366.796875 723.011719 367.460938 723.085938 367.460938 C 723.164062 367.460938 725.625 368.777344 728.558594 370.386719 C 731.058594 371.757812 733.558594 373.121094 736.0625 374.480469 C 737.253906 375.125 743.382812 378.457031 749.6875 381.878906 L 761.148438 388.105469 L 761.148438 397.398438 C 761.148438 402.507812 761.039062 411.300781 760.910156 416.941406 L 760.675781 427.199219 L 746.203125 427.109375 C 738.242188 427.0625 727.140625 426.921875 721.535156 426.796875 L 711.335938 426.574219 L 711.335938 412.941406 L 726.496094 412.941406 L 726.496094 423.046875 L 742.378906 423.046875 L 742.378906 409.253906 L 737.566406 404.332031 C 734.917969 401.621094 732.210938 398.796875 731.550781 398.050781 L 730.351562 396.699219 L 708.03125 396.699219 L 695.101562 409.152344 L 695.09375 493.925781 L 698.007812 496.703125 C 701.320312 499.855469 700.773438 499.671875 709.171875 500.46875 C 719.949219 501.492188 733.398438 501.035156 736.320312 499.542969 C 736.773438 499.3125 738.320312 497.96875 739.761719 496.554688 L 742.378906 493.988281 L 742.378906 469.753906 C 742.378906 445.785156 742.371094 445.511719 741.628906 444.570312 L 740.882812 443.621094 L 730.683594 443.621094 C 717.761719 443.621094 718.917969 442.835938 718.917969 451.613281 C 718.917969 457.75 718.941406 457.953125 719.753906 458.71875 C 720.46875 459.390625 721.003906 459.5 723.542969 459.5 L 726.496094 459.5 L 726.496094 490.542969 L 711.335938 490.542969 L 711.335938 436.761719 L 760.785156 436.761719 L 760.785156 464.375 C 760.785156 482.375 760.910156 491.984375 761.144531 491.984375 C 761.71875 491.984375 767.914062 488.671875 771.253906 486.582031 C 775.078125 484.183594 776.484375 483.167969 778.199219 481.558594 L 779.554688 480.289062 L 779.554688 380.609375 L 778.742188 379.03125 C 778.015625 377.617188 777.402344 377.15625 772.878906 374.601562 C 765.757812 370.585938 765.980469 370.75 766.796875 370.195312 C 767.164062 369.949219 769.25 368.804688 771.433594 367.652344 C 773.617188 366.5 777.125 364.605469 779.226562 363.441406 C 781.332031 362.277344 783.15625 361.328125 783.289062 361.328125 C 783.417969 361.328125 783.53125 387.4375 783.542969 419.347656 L 783.558594 477.367188 L 786.476562 474.300781 C 792.15625 468.335938 798.875 459.660156 801.828125 454.476562 L 803.375 451.757812 L 803.375 414.441406 L 808.21875 414.320312 C 810.882812 414.257812 813.199219 414.070312 813.363281 413.902344 C 813.730469 413.535156 813.765625 402.183594 813.402344 401.300781 C 813.175781 400.742188 812.574219 400.667969 808.261719 400.667969 L 803.375 400.667969 L 803.375 362.890625 L 801.546875 359.875 C 796.769531 352.007812 791.121094 344.742188 785.921875 339.773438 C 784.007812 337.941406 782.148438 336.289062 781.789062 336.097656 C 781.273438 335.820312 780.296875 336.300781 777.007812 338.457031 M 666.21875 377.398438 C 663.738281 379.070312 661.425781 380.886719 661.078125 381.4375 C 660.488281 382.378906 660.449219 385.4375 660.445312 431.074219 L 660.445312 479.707031 L 663.21875 481.910156 C 667.265625 485.125 670.996094 487.570312 674.882812 489.550781 L 678.3125 491.296875 L 678.402344 464.03125 L 678.496094 436.761719 L 691.507812 436.761719 L 691.304688 427.199219 L 685.078125 427.097656 L 678.851562 427 L 678.851562 390.601562 L 684.09375 387.425781 C 687.550781 385.328125 689.175781 384.148438 688.875 383.960938 C 688.300781 383.601562 670.804688 374.3125 670.761719 374.34375 C 670.746094 374.355469 668.703125 375.730469 666.21875 377.398438 " fill-opacity="1" fill-rule="evenodd"/></svg>